<?xml version="1.0" encoding="utf-8"?>
<!-- Generator: Adobe Illustrator 27.0.0, SVG Export Plug-In . SVG Version: 6.00 Build 0)  -->
<svg version="1.1" id="Layer_1" xmlns="http://www.w3.org/2000/svg" xmlns:xlink="http://www.w3.org/1999/xlink" x="0px" y="0px"
	 viewBox="0 0 140.2 140.2" style="enable-background:new 0 0 140.2 140.2;" xml:space="preserve">
<style type="text/css">
	.st0{fill:#111827;}
	.st1{fill:#F8F296;}
</style>
<g>
	<g>
		<path class="st0" d="M97,140.2H43.3C19.4,140.2,0,120.9,0,97V43.3C0,19.4,19.4,0,43.3,0H97c23.9,0,43.3,19.4,43.3,43.3V97
			C140.2,120.9,120.9,140.2,97,140.2z"/>
	</g>
	<g>
		<path class="st1" d="M51.1,93.7L17.6,75.3v-7.9l33.4-18.3v9.5L27.4,71.1v0.3l23.7,12.7C51.1,84.2,51.1,93.7,51.1,93.7z"/>
		<path class="st1" d="M54.9,102.6v-0.7l21-64.3h9.5v0.7l-21.1,64.3H54.9z"/>
		<path class="st1" d="M89.1,93.7v-9.5l23.8-12.7v-0.3L89.1,58.6v-9.5l33.4,18.3v7.9L89.1,93.7z"/>
	</g>
</g>
</svg>
