<?xml version="1.0" encoding="utf-8"?>
<!-- Generator: Adobe Illustrator 27.0.0, SVG Export Plug-In . SVG Version: 6.00 Build 0)  -->
<svg version="1.1" id="Layer_1" xmlns="http://www.w3.org/2000/svg" xmlns:xlink="http://www.w3.org/1999/xlink" x="0px" y="0px"
	 viewBox="0 0 715.3 140.2" style="enable-background:new 0 0 715.3 140.2;" xml:space="preserve">
<style type="text/css">
	.st0{fill:#111827;}
	.st1{fill:#F8F296;}
</style>
<g>
	<g>
		<path class="st0" d="M97,140.2H43.3C19.4,140.2,0,120.9,0,97V43.3C0,19.4,19.4,0,43.3,0H97c23.9,0,43.3,19.4,43.3,43.3V97
			C140.2,120.9,120.9,140.2,97,140.2z"/>
	</g>
	<g>
		<path class="st1" d="M50.5,94.4L16.1,75.5v-8.1l34.4-18.9v9.8L26.1,71.2v0.4l24.4,13C50.5,84.6,50.5,94.4,50.5,94.4z"/>
		<path class="st1" d="M54.4,103.6v-0.7l21.6-66.2h9.8v0.7l-21.7,66.2H54.4z"/>
		<path class="st1" d="M89.7,94.4v-9.8l24.5-13v-0.4L89.7,58.3v-9.8l34.4,18.9v8.1L89.7,94.4z"/>
	</g>
</g>
<g>
	<path class="st0" d="M208.8,109.7c-3.9,0-7.6-0.6-11.1-1.7s-6.6-2.9-9.3-5.2c-2.7-2.3-4.8-5.3-6.3-8.8c-1.5-3.6-2.3-7.7-2.3-12.5
		c0-5,0.7-9.4,2.2-13.2c1.5-3.8,3.5-6.9,6.1-9.3c2.6-2.5,5.6-4.3,9.1-5.6c3.5-1.2,7.4-1.9,11.6-1.9c3,0,6.1,0.3,9.2,0.9
		c3.2,0.6,6,1.5,8.4,2.6v14c-2.6-1.2-5-2.1-7.5-2.9c-2.4-0.8-4.9-1.1-7.5-1.1c-4.6,0-8.3,1.1-11.1,3.4c-2.8,2.3-4.2,6-4.2,11.2
		c0,5.5,1.2,9.6,3.7,12.3c2.5,2.8,6.6,4.2,12.3,4.2c2.7,0,5.3-0.5,7.8-1.4c2.5-0.9,4.7-1.9,6.5-2.9v13.9c-2.5,1.3-5.2,2.3-8,3.1
		C215.6,109.3,212.4,109.7,208.8,109.7z"/>
	<path class="st0" d="M262.6,109.9c-9.3,0-16.3-2.5-21-7.5c-4.7-5-7-12.3-7-22c0-10.4,2.4-17.9,7.2-22.4c4.8-4.6,11.7-6.8,20.9-6.8
		c6.2,0,11.4,1,15.6,3.1c4.2,2.1,7.4,5.3,9.5,9.6c2.1,4.3,3.2,9.8,3.2,16.6c0,9.7-2.4,17-7.3,22
		C278.7,107.4,271.7,109.9,262.6,109.9z M262.6,96.9c2.7,0,4.9-0.6,6.7-1.9c1.8-1.3,3.1-3.1,4-5.6c0.9-2.4,1.4-5.4,1.4-9
		c0-4.1-0.5-7.3-1.4-9.7c-0.9-2.4-2.3-4.1-4.1-5.1c-1.8-1.1-4-1.6-6.7-1.6c-2.8,0-5,0.5-6.8,1.6c-1.7,1.1-3,2.8-3.9,5.2
		c-0.8,2.4-1.3,5.6-1.3,9.6c0,5.5,1,9.7,2.9,12.4C255.5,95.6,258.5,96.9,262.6,96.9z"/>
	<path class="st0" d="M328.6,109.9c-4.3,0-8.2-0.5-11.9-1.4c-3.6-0.9-6.7-2.5-9.3-4.8c-2.6-2.2-4.7-5.3-6.2-9.1
		c-1.5-3.9-2.2-8.7-2.2-14.4c0-9,2.2-16,6.6-21.2c4.4-5.2,11-7.8,19.8-7.8c1.2,0,2.7,0.1,4.6,0.3c1.9,0.2,3.9,0.6,5.9,1.4
		c2,0.7,3.9,2,5.5,3.7l-3.3,5V30.3h16.2v63.6c0,2.7-0.7,5-2.2,7c-1.5,2-3.4,3.7-5.8,5c-2.4,1.3-5.2,2.3-8.2,3
		S331.8,109.9,328.6,109.9z M329.3,96.3c2.6,0,4.8-0.3,6.4-1c1.6-0.7,2.5-1.7,2.5-3.1V66.7c-1.3-0.7-2.7-1.3-4.2-1.7
		c-1.5-0.4-2.9-0.6-4.3-0.6c-3.1,0-5.6,0.5-7.8,1.5c-2.1,1-3.7,2.7-4.8,5.1c-1.1,2.4-1.6,5.6-1.6,9.7c0,3.2,0.4,6,1.3,8.2
		c0.9,2.3,2.3,4.1,4.3,5.4C323.1,95.6,325.8,96.3,329.3,96.3z"/>
	<path class="st0" d="M393.7,109.9c-5.5,0-10.4-1.1-14.7-3.4c-4.3-2.3-7.6-5.6-9.9-9.8c-2.4-4.3-3.5-9.3-3.5-15.2
		c0-9.6,2.4-17.1,7.2-22.3c4.8-5.3,11.6-7.9,20.5-7.9c6.1,0,11,1.3,14.8,3.9c3.8,2.6,6.5,6.4,8.2,11.5c1.7,5,2.6,11.1,2.5,18.4
		h-42.1l-1.7-10.4h30.4l-2.4,5.1c-0.1-5.9-0.9-10-2.5-12.5c-1.6-2.4-4.2-3.6-7.9-3.6c-2,0-3.9,0.5-5.5,1.5c-1.6,1-2.9,2.7-3.8,5.1
		c-0.9,2.4-1.4,5.6-1.4,9.8c0,5.2,1.3,9.3,3.8,12.1c2.5,2.8,6.5,4.3,12.1,4.3c2,0,4.1-0.2,6.1-0.7c2-0.5,3.9-1,5.6-1.7
		s3.2-1.2,4.5-1.7v14c-2.6,1.1-5.6,2-8.8,2.7C401.8,109.6,398,109.9,393.7,109.9z"/>
	<path class="st0" d="M455.1,109.8c-3.7,0-7.1-0.2-10-0.5c-3-0.4-5.8-0.9-8.3-1.6c-2.5-0.7-5-1.7-7.4-2.8V88
		c3.3,2.7,7.1,4.7,11.4,6.1c4.2,1.4,8.2,2.1,12,2.1c3.3,0,5.9-0.6,7.7-1.9c1.8-1.3,2.7-3.2,2.7-5.8c0-2-0.8-3.6-2.5-4.8
		c-1.6-1.2-3.8-2.3-6.5-3.2c-2.7-0.9-5.7-1.9-9.1-3.1c-2.1-0.7-4.2-1.5-6.2-2.5c-2-1-3.9-2.3-5.5-3.9c-1.6-1.6-2.9-3.5-3.8-5.7
		c-0.9-2.3-1.4-5-1.4-8.3c0-3,0.5-5.9,1.6-8.6c1.1-2.8,2.8-5.2,5.1-7.4c2.3-2.2,5.2-3.9,8.8-5.2c3.6-1.3,7.8-1.9,12.6-1.9
		c3,0,5.6,0.2,7.9,0.5c2.3,0.4,4.5,0.9,6.6,1.6c2.1,0.7,4.3,1.6,6.4,2.7v17c-1.7-1.4-3.6-2.7-5.6-3.9s-4.2-2.2-6.5-3
		c-2.3-0.8-4.6-1.2-7.1-1.3c-2.2-0.1-4.2,0.1-6,0.7c-1.8,0.5-3.2,1.3-4.3,2.5c-1,1.1-1.5,2.6-1.5,4.3c0,2,0.6,3.6,1.9,4.8
		c1.2,1.2,3,2.1,5.1,2.9s4.6,1.6,7.3,2.5c3,0.9,5.7,1.8,8.2,2.9c2.5,1.1,4.7,2.4,6.6,4c1.9,1.6,3.3,3.6,4.4,5.9
		c1,2.3,1.5,5.1,1.5,8.4c0,4.4-1,8.4-3.1,12c-2,3.6-5,6.4-8.8,8.5C465.4,108.8,460.7,109.8,455.1,109.8z"/>
	<path class="st0" d="M493.1,108.3V31.2h16.4v32.8l-6.9-3.7c2.9-2.5,6.4-4.6,10.3-6.3c4-1.6,8-2.5,12.2-2.5c4,0,7.5,0.7,10.6,2
		c3.1,1.3,5.4,3.4,7.2,6.4c1.7,2.9,2.6,7,2.6,12.2v36.3h-16.3V75.4c0-3.6-0.9-6.3-2.7-7.9c-1.8-1.6-4.4-2.5-7.8-2.5
		c-1.7,0-3.5,0.2-5.2,0.7c-1.7,0.5-3,1.1-4,1.8l-0.2,40.7H493.1z"/>
	<path class="st0" d="M581.2,109.9c-3.4,0-6.5-0.3-9.4-0.9c-2.9-0.6-5.5-1.6-7.8-3.1c-2.2-1.4-4-3.3-5.2-5.8
		c-1.2-2.4-1.9-5.5-1.9-9.1c0-3.4,0.7-6.4,2.1-9c1.4-2.5,3.6-4.5,6.5-5.9c2.9-1.4,6.6-2.1,11-2.1c2.5,0,4.9,0.3,7.2,0.8
		c2.3,0.5,4.4,1.2,6.3,2.1c1.9,0.9,3.3,1.8,4.4,2.8l0.7,7.9c-1.5-0.9-3.2-1.6-5.2-2.1c-2-0.5-4.2-0.8-6.6-0.8
		c-3.6,0-6.2,0.5-7.8,1.6c-1.6,1.1-2.5,2.7-2.5,5c0,1.4,0.4,2.6,1.2,3.7c0.8,1.1,1.9,1.9,3.2,2.5c1.3,0.6,2.7,0.9,4.2,0.9
		c3.7,0,6.3-0.3,7.8-0.8c1.5-0.5,2.2-1.5,2.2-3.1V74.3c0-3.3-1.1-5.8-3.2-7.3c-2.1-1.5-5.2-2.2-9.1-2.2c-3.2,0-6.4,0.6-9.7,1.7
		c-3.2,1.1-5.9,2.5-7.9,4.1V56.2c1.9-1.2,4.8-2.3,8.8-3.3c4-1,8.4-1.5,13.4-1.5c1.7,0,3.7,0.1,5.8,0.4c2.1,0.3,4.2,0.8,6.3,1.6
		c2.1,0.8,4.1,1.9,5.8,3.3c1.8,1.5,3.2,3.3,4.3,5.6c1.1,2.3,1.6,5.1,1.6,8.4l-0.1,26.1c0,3.1-1.1,5.7-3.2,7.6
		c-2.1,1.9-5.2,3.3-9.1,4.2C591.5,109.5,586.8,109.9,581.2,109.9z"/>
	<path class="st0" d="M622.3,108.3V58.8c1-0.9,2.8-1.9,5.5-3c2.6-1.1,5.6-2.1,9-3.1c3.4-0.9,6.8-1.4,10.2-1.4c3.4,0,6.1,0.3,8.1,0.8
		c2,0.5,3.5,1.2,4.5,2V66c-1.2-0.3-2.8-0.5-4.7-0.7c-1.9-0.1-3.9-0.2-5.9-0.3c-2,0-4,0-5.8,0.1c-1.8,0.1-3.4,0.2-4.6,0.4v42.7H622.3
		z"/>
	<path class="st0" d="M690.3,109.9c-5.5,0-10.4-1.1-14.7-3.4c-4.3-2.3-7.6-5.6-9.9-9.8c-2.4-4.3-3.5-9.3-3.5-15.2
		c0-9.6,2.4-17.1,7.2-22.3c4.8-5.3,11.6-7.9,20.5-7.9c6.1,0,11,1.3,14.8,3.9c3.8,2.6,6.5,6.4,8.2,11.5c1.7,5,2.6,11.1,2.5,18.4
		h-42.1l-1.7-10.4h30.4l-2.4,5.1c-0.1-5.9-0.9-10-2.5-12.5c-1.6-2.4-4.2-3.6-7.9-3.6c-2,0-3.9,0.5-5.5,1.5c-1.6,1-2.9,2.7-3.8,5.1
		c-0.9,2.4-1.4,5.6-1.4,9.8c0,5.2,1.3,9.3,3.8,12.1c2.5,2.8,6.5,4.3,12.1,4.3c2,0,4.1-0.2,6.1-0.7c2-0.5,3.9-1,5.6-1.7
		s3.2-1.2,4.5-1.7v14c-2.6,1.1-5.6,2-8.8,2.7C698.3,109.6,694.6,109.9,690.3,109.9z"/>
</g>
</svg>
