<?xml version="1.0" encoding="utf-8"?>
<!-- Generator: Adobe Illustrator 27.0.0, SVG Export Plug-In . SVG Version: 6.00 Build 0)  -->
<svg version="1.1" id="Layer_1" xmlns="http://www.w3.org/2000/svg" xmlns:xlink="http://www.w3.org/1999/xlink" x="0px" y="0px"
	 viewBox="0 0 140.2 140.2" style="enable-background:new 0 0 140.2 140.2;" xml:space="preserve">
<style type="text/css">
	.st0{fill:#F8F296;}
	.st1{fill:#111827;}
</style>
<g>
	<g>
		<path class="st0" d="M97,140.2H43.3C19.4,140.2,0,120.9,0,97V43.3C0,19.4,19.4,0,43.3,0H97c23.9,0,43.3,19.4,43.3,43.3V97
			C140.2,120.9,120.9,140.2,97,140.2z"/>
	</g>
	<g>
		<path class="st1" d="M49.6,95.5L13.5,75.7v-8.5l36.1-19.8v10.3L24,71.2v0.4l25.6,13.7C49.6,85.3,49.6,95.5,49.6,95.5z"/>
		<path class="st1" d="M53.7,105.2v-0.8L76.4,35h10.3v0.8l-22.8,69.4H53.7z"/>
		<path class="st1" d="M90.6,95.5V85.3l25.7-13.7v-0.4L90.6,57.7V47.4l36.1,19.8v8.5L90.6,95.5z"/>
	</g>
</g>
</svg>
